<svg width="22" height="14" viewBox="0 0 22 14" fill="none" xmlns="http://www.w3.org/2000/svg">
<path d="M11 0.547058C6.79667 0.547058 2.98486 2.87578 0.172139 6.65824C-0.0573796 6.96813 -0.0573796 7.40106 0.172139 7.71095C2.98486 11.498 6.79667 13.8267 11 13.8267C15.2033 13.8267 19.0151 11.498 21.8279 7.7155C22.0574 7.40561 22.0574 6.97268 21.8279 6.66279C19.0151 2.87578 15.2033 0.547058 11 0.547058ZM11.3015 11.8625C8.5113 12.0403 6.20712 9.71155 6.38263 6.88154C6.52664 4.54826 8.39429 2.65703 10.6985 2.5112C13.4887 2.33347 15.7929 4.66219 15.6174 7.4922C15.4689 9.82092 13.6012 11.7121 11.3015 11.8625ZM11.162 9.70243C9.65889 9.79813 8.41679 8.54491 8.5158 7.02281C8.59231 5.76503 9.60039 4.74878 10.8425 4.66675C12.3456 4.57105 13.5877 5.82427 13.4887 7.34637C13.4077 8.60871 12.3996 9.62496 11.162 9.70243Z" fill="white"/>
</svg>
