<svg width="9" height="9" viewBox="0 0 9 9" fill="none" xmlns="http://www.w3.org/2000/svg">
<g clip-path="url(#clip0_300_214)">
<path d="M9 3.35656C9 4.46295 8.39078 5.36603 7.13748 6.1175C5.55616 7.06564 4.77931 8.20706 4.77164 8.21848C4.71088 8.30904 4.60898 8.36334 4.49998 8.36334C4.39106 8.36334 4.2893 8.30912 4.22854 8.21879C4.21667 8.20121 3.43106 7.05796 1.86252 6.1175C0.609224 5.36603 0 4.4629 0 3.35656C0 2.03805 0.859334 0.636749 2.45186 0.636749C3.51864 0.636749 4.16529 1.1091 4.50002 1.46293C4.83475 1.10905 5.4814 0.636749 6.54819 0.636749C8.14071 0.636706 9 2.03805 9 3.35656Z" fill="#EEEEEE"/>
</g>
<defs>
<clipPath id="clip0_300_214">
<rect width="9" height="9" fill="white"/>
</clipPath>
</defs>
</svg>
