<svg width="31" height="30" viewBox="0 0 31 30" fill="none" xmlns="http://www.w3.org/2000/svg">
<g clip-path="url(#clip0_34_256)">
<path d="M15.089 12.017C13.442 12.017 12.1009 13.3553 12.1009 14.9997C12.1009 16.6447 13.442 17.9837 15.089 17.9837C16.7367 17.9837 18.0771 16.6447 18.0771 14.9997C18.0771 13.3553 16.7367 12.017 15.089 12.017ZM15.089 12.017C13.442 12.017 12.1009 13.3553 12.1009 14.9997C12.1009 16.6447 13.442 17.9837 15.089 17.9837C16.7367 17.9837 18.0771 16.6447 18.0771 14.9997C18.0771 13.3553 16.7367 12.017 15.089 12.017ZM20.067 7.15292H10.1117C8.52268 7.15292 7.22973 8.44382 7.22973 10.0303V19.9697C7.22973 21.5562 8.52268 22.8471 10.1117 22.8471H20.067C21.656 22.8471 22.9489 21.5562 22.9489 19.9697V10.0303C22.9489 8.44382 21.656 7.15292 20.067 7.15292ZM15.089 20.1665C12.2361 20.1665 9.91454 17.8487 9.91454 14.9997C9.91454 12.1513 12.2361 9.83345 15.089 9.83345C17.9426 9.83345 20.2641 12.1513 20.2641 14.9997C20.2641 17.8487 17.9426 20.1665 15.089 20.1665ZM20.4303 10.9018C19.7551 10.9018 19.2059 10.3535 19.2059 9.67941C19.2059 9.00533 19.7551 8.45698 20.4303 8.45698C21.1054 8.45698 21.6546 9.00533 21.6546 9.67941C21.6546 10.3535 21.1054 10.9018 20.4303 10.9018ZM15.089 12.017C13.442 12.017 12.1009 13.3553 12.1009 14.9997C12.1009 16.6447 13.442 17.9837 15.089 17.9837C16.7367 17.9837 18.0771 16.6447 18.0771 14.9997C18.0771 13.3553 16.7367 12.017 15.089 12.017ZM20.067 7.15292H10.1117C8.52268 7.15292 7.22973 8.44382 7.22973 10.0303V19.9697C7.22973 21.5562 8.52268 22.8471 10.1117 22.8471H20.067C21.656 22.8471 22.9489 21.5562 22.9489 19.9697V10.0303C22.9489 8.44382 21.656 7.15292 20.067 7.15292ZM15.089 20.1665C12.2361 20.1665 9.91454 17.8487 9.91454 14.9997C9.91454 12.1513 12.2361 9.83345 15.089 9.83345C17.9426 9.83345 20.2641 12.1513 20.2641 14.9997C20.2641 17.8487 17.9426 20.1665 15.089 20.1665ZM20.4303 10.9018C19.7551 10.9018 19.2059 10.3535 19.2059 9.67941C19.2059 9.00533 19.7551 8.45698 20.4303 8.45698C21.1054 8.45698 21.6546 9.00533 21.6546 9.67941C21.6546 10.3535 21.1054 10.9018 20.4303 10.9018ZM15.089 12.017C13.442 12.017 12.1009 13.3553 12.1009 14.9997C12.1009 16.6447 13.442 17.9837 15.089 17.9837C16.7367 17.9837 18.0771 16.6447 18.0771 14.9997C18.0771 13.3553 16.7367 12.017 15.089 12.017ZM0.0653992 0V30H30.1132V0H0.0653992ZM25.1353 19.9697C25.1353 22.7602 22.8619 25.03 20.067 25.03H10.1117C7.31676 25.03 5.04337 22.7602 5.04337 19.9697V10.0303C5.04337 7.23981 7.31676 4.97005 10.1117 4.97005H20.067C22.8619 4.97005 25.1353 7.23981 25.1353 10.0303V19.9697ZM20.067 7.15292H10.1117C8.52268 7.15292 7.22973 8.44382 7.22973 10.0303V19.9697C7.22973 21.5562 8.52268 22.8471 10.1117 22.8471H20.067C21.656 22.8471 22.9489 21.5562 22.9489 19.9697V10.0303C22.9489 8.44382 21.656 7.15292 20.067 7.15292ZM15.089 20.1665C12.2361 20.1665 9.91454 17.8487 9.91454 14.9997C9.91454 12.1513 12.2361 9.83345 15.089 9.83345C17.9426 9.83345 20.2641 12.1513 20.2641 14.9997C20.2641 17.8487 17.9426 20.1665 15.089 20.1665ZM20.4303 10.9018C19.7551 10.9018 19.2059 10.3535 19.2059 9.67941C19.2059 9.00533 19.7551 8.45698 20.4303 8.45698C21.1054 8.45698 21.6546 9.00533 21.6546 9.67941C21.6546 10.3535 21.1054 10.9018 20.4303 10.9018ZM15.089 12.017C13.442 12.017 12.1009 13.3553 12.1009 14.9997C12.1009 16.6447 13.442 17.9837 15.089 17.9837C16.7367 17.9837 18.0771 16.6447 18.0771 14.9997C18.0771 13.3553 16.7367 12.017 15.089 12.017ZM15.089 12.017C13.442 12.017 12.1009 13.3553 12.1009 14.9997C12.1009 16.6447 13.442 17.9837 15.089 17.9837C16.7367 17.9837 18.0771 16.6447 18.0771 14.9997C18.0771 13.3553 16.7367 12.017 15.089 12.017ZM15.089 12.017C13.442 12.017 12.1009 13.3553 12.1009 14.9997C12.1009 16.6447 13.442 17.9837 15.089 17.9837C16.7367 17.9837 18.0771 16.6447 18.0771 14.9997C18.0771 13.3553 16.7367 12.017 15.089 12.017ZM20.067 7.15292H10.1117C8.52268 7.15292 7.22973 8.44382 7.22973 10.0303V19.9697C7.22973 21.5562 8.52268 22.8471 10.1117 22.8471H20.067C21.656 22.8471 22.9489 21.5562 22.9489 19.9697V10.0303C22.9489 8.44382 21.656 7.15292 20.067 7.15292ZM15.089 20.1665C12.2361 20.1665 9.91454 17.8487 9.91454 14.9997C9.91454 12.1513 12.2361 9.83345 15.089 9.83345C17.9426 9.83345 20.2641 12.1513 20.2641 14.9997C20.2641 17.8487 17.9426 20.1665 15.089 20.1665ZM20.4303 10.9018C19.7551 10.9018 19.2059 10.3535 19.2059 9.67941C19.2059 9.00533 19.7551 8.45698 20.4303 8.45698C21.1054 8.45698 21.6546 9.00533 21.6546 9.67941C21.6546 10.3535 21.1054 10.9018 20.4303 10.9018ZM15.089 12.017C13.442 12.017 12.1009 13.3553 12.1009 14.9997C12.1009 16.6447 13.442 17.9837 15.089 17.9837C16.7367 17.9837 18.0771 16.6447 18.0771 14.9997C18.0771 13.3553 16.7367 12.017 15.089 12.017ZM15.089 12.017C13.442 12.017 12.1009 13.3553 12.1009 14.9997C12.1009 16.6447 13.442 17.9837 15.089 17.9837C16.7367 17.9837 18.0771 16.6447 18.0771 14.9997C18.0771 13.3553 16.7367 12.017 15.089 12.017ZM15.089 12.017C13.442 12.017 12.1009 13.3553 12.1009 14.9997C12.1009 16.6447 13.442 17.9837 15.089 17.9837C16.7367 17.9837 18.0771 16.6447 18.0771 14.9997C18.0771 13.3553 16.7367 12.017 15.089 12.017ZM20.067 7.15292H10.1117C8.52268 7.15292 7.22973 8.44382 7.22973 10.0303V19.9697C7.22973 21.5562 8.52268 22.8471 10.1117 22.8471H20.067C21.656 22.8471 22.9489 21.5562 22.9489 19.9697V10.0303C22.9489 8.44382 21.656 7.15292 20.067 7.15292ZM15.089 20.1665C12.2361 20.1665 9.91454 17.8487 9.91454 14.9997C9.91454 12.1513 12.2361 9.83345 15.089 9.83345C17.9426 9.83345 20.2641 12.1513 20.2641 14.9997C20.2641 17.8487 17.9426 20.1665 15.089 20.1665ZM20.4303 10.9018C19.7551 10.9018 19.2059 10.3535 19.2059 9.67941C19.2059 9.00533 19.7551 8.45698 20.4303 8.45698C21.1054 8.45698 21.6546 9.00533 21.6546 9.67941C21.6546 10.3535 21.1054 10.9018 20.4303 10.9018ZM15.089 12.017C13.442 12.017 12.1009 13.3553 12.1009 14.9997C12.1009 16.6447 13.442 17.9837 15.089 17.9837C16.7367 17.9837 18.0771 16.6447 18.0771 14.9997C18.0771 13.3553 16.7367 12.017 15.089 12.017Z" fill="#00BAE0"/>
</g>
<defs>
<clipPath id="clip0_34_256">
<rect width="30.0478" height="30" fill="white" transform="translate(0.0653992)"/>
</clipPath>
</defs>
</svg>
