<svg width="12" height="12" viewBox="0 0 12 12" fill="none" xmlns="http://www.w3.org/2000/svg">
<path d="M8.79597 9.396C8.0112 10.1816 6.9783 10.6709 5.87325 10.7804C4.7682 10.8899 3.65938 10.6128 2.73569 9.99646C1.812 9.38009 1.13059 8.46252 0.807559 7.40009C0.484528 6.33765 0.539858 5.19608 0.964123 4.16987C1.38839 3.14365 2.15534 2.29629 3.13431 1.77214C4.11328 1.24798 5.2437 1.07948 6.33298 1.29532C7.42226 1.51117 8.403 2.09801 9.10812 2.95588C9.81324 3.81374 10.1991 4.88954 10.2 6H8.99997C9.00071 5.16708 8.7126 4.35968 8.18475 3.71537C7.6569 3.07107 6.92196 2.62974 6.10518 2.46658C5.2884 2.30342 4.44031 2.42852 3.70544 2.82058C2.97056 3.21264 2.39437 3.84739 2.07505 4.61667C1.75572 5.38595 1.71303 6.24215 1.95424 7.03938C2.19545 7.8366 2.70564 8.52552 3.39787 8.98875C4.0901 9.45197 4.92153 9.66082 5.75049 9.57972C6.57945 9.49863 7.35465 9.13259 7.94397 8.544L8.79597 9.396ZM7.19997 6H12L9.59997 8.4L7.19997 6Z" fill="white"/>
</svg>
