<svg width="31" height="30" viewBox="0 0 31 30" fill="none" xmlns="http://www.w3.org/2000/svg">
<g clip-path="url(#clip0_34_237)">
<path fill-rule="evenodd" clip-rule="evenodd" d="M0.132385 0V30H30.1802V0H0.132385ZM25.1938 19.9095C24.9388 21.0139 24.034 21.8294 22.9447 21.9508C20.3663 22.2378 17.7557 22.2398 15.1553 22.2378C12.5559 22.2398 9.94529 22.2378 7.36606 21.9508C6.27654 21.8295 5.37174 21.0139 5.11808 19.9095C4.75513 18.3372 4.75513 16.6194 4.75513 14.9999C4.75513 13.3805 4.75942 11.6635 5.12205 10.0911C5.3757 8.98569 6.28084 8.17128 7.36896 8.04989C9.94846 7.76209 12.5602 7.76097 15.1595 7.76209C17.7587 7.76103 20.3695 7.76209 22.9487 8.04989C24.0383 8.17128 24.9431 8.98569 25.1978 10.0911C25.5607 11.6635 25.5575 13.3805 25.5575 14.9999C25.5575 16.6194 25.5564 18.3372 25.1938 19.9095Z" fill="#00BAE0"/>
<path fill-rule="evenodd" clip-rule="evenodd" d="M12.4721 18.224C14.6823 17.0797 16.8729 15.945 19.0852 14.7999C16.8665 13.6441 14.6761 12.504 12.4721 11.3557V18.224Z" fill="#00BAE0"/>
</g>
<defs>
<clipPath id="clip0_34_237">
<rect width="30.0478" height="30" fill="white" transform="translate(0.132385)"/>
</clipPath>
</defs>
</svg>
